<svg width="24" height="21" viewBox="0 0 24 21" fill="none" xmlns="http://www.w3.org/2000/svg">
<path d="M6.5625 0.6875L7.35938 1.4375C7.45312 1.5625 7.5 1.70313 7.5 1.85938C7.5 1.98438 7.45312 2.10937 7.35938 2.23438L3.9375 5.60938L3.23438 6.35938C3.10938 6.45312 2.96875 6.5 2.8125 6.5C2.65625 6.5 2.51562 6.45312 2.39062 6.35938L0.1875 4.10938C0.0625 4.01562 0 3.89062 0 3.73438C0 3.57813 0.0625 3.4375 0.1875 3.3125L0.890625 2.60938C1.01562 2.48437 1.15625 2.42188 1.3125 2.42188C1.46875 2.42188 1.59375 2.48437 1.6875 2.60938L2.76562 3.64062L5.76562 0.6875C5.85938 0.5625 5.98438 0.5 6.14062 0.5C6.29688 0.5 6.4375 0.5625 6.5625 0.6875ZM6.5625 8.14062L7.35938 8.9375C7.45312 9.03125 7.5 9.15625 7.5 9.3125C7.5 9.46875 7.4375 9.60938 7.3125 9.73438L3.9375 13.1094L3.23438 13.8125C3.10938 13.9375 2.96875 14 2.8125 14C2.65625 14 2.51562 13.9375 2.39062 13.8125L0.1875 11.6094C0.0625 11.4844 0 11.3594 0 11.2344C0 11.0781 0.0625 10.9375 0.1875 10.8125L0.890625 10.0625C1.01562 9.96875 1.15625 9.92188 1.3125 9.92188C1.46875 9.92188 1.59375 9.96875 1.6875 10.0625L2.76562 11.0938L5.76562 8.14062C5.85938 8.01562 5.98438 7.95312 6.14062 7.95312C6.29688 7.95312 6.4375 8.01562 6.5625 8.14062ZM1.35938 16.9062C1.82812 16.4688 2.375 16.25 3 16.25C3.625 16.25 4.15625 16.4688 4.59375 16.9062C5.03125 17.3438 5.25 17.875 5.25 18.5C5.25 19.125 5.03125 19.6562 4.59375 20.0938C4.15625 20.5312 3.625 20.75 3 20.75C2.375 20.75 1.82812 20.5312 1.35938 20.0938C0.921875 19.6562 0.703125 19.125 0.703125 18.5C0.703125 17.875 0.921875 17.3438 1.35938 16.9062ZM23.25 17C23.4688 17 23.6406 17.0781 23.7656 17.2344C23.9219 17.3594 24 17.5312 24 17.75V19.25C24 19.4688 23.9219 19.6562 23.7656 19.8125C23.6406 19.9375 23.4688 20 23.25 20H9.75C9.53125 20 9.34375 19.9375 9.1875 19.8125C9.0625 19.6562 9 19.4688 9 19.25V17.75C9 17.5312 9.0625 17.3594 9.1875 17.2344C9.34375 17.0781 9.53125 17 9.75 17H23.25ZM23.25 2C23.4688 2 23.6406 2.07813 23.7656 2.23438C23.9219 2.35938 24 2.53125 24 2.75V4.25C24 4.46875 23.9219 4.65625 23.7656 4.8125C23.6406 4.9375 23.4688 5 23.25 5H9.75C9.53125 5 9.34375 4.9375 9.1875 4.8125C9.0625 4.65625 9 4.46875 9 4.25V2.75C9 2.53125 9.0625 2.35938 9.1875 2.23438C9.34375 2.07813 9.53125 2 9.75 2H23.25ZM23.25 9.5C23.4688 9.5 23.6406 9.57812 23.7656 9.73438C23.9219 9.85938 24 10.0312 24 10.25V11.75C24 11.9688 23.9219 12.1562 23.7656 12.3125C23.6406 12.4375 23.4688 12.5 23.25 12.5H9.75C9.53125 12.5 9.34375 12.4375 9.1875 12.3125C9.0625 12.1562 9 11.9688 9 11.75V10.25C9 10.0312 9.0625 9.85938 9.1875 9.73438C9.34375 9.57812 9.53125 9.5 9.75 9.5H23.25Z" fill="#F3DBC7"/>
</svg>
