<svg width="30" height="22" viewBox="0 0 30 22" fill="none" xmlns="http://www.w3.org/2000/svg">
<path d="M12.7031 9.45312C11.6719 10.4844 10.4375 11 9 11C7.5625 11 6.32812 10.4844 5.29688 9.45312C4.26562 8.42188 3.75 7.1875 3.75 5.75C3.75 4.3125 4.26562 3.07812 5.29688 2.04688C6.32812 1.01562 7.5625 0.5 9 0.5C10.4375 0.5 11.6719 1.01562 12.7031 2.04688C13.7344 3.07812 14.25 4.3125 14.25 5.75C14.25 7.1875 13.7344 8.42188 12.7031 9.45312ZM12.6094 12.5C14.1094 12.5 15.375 13.0312 16.4062 14.0938C17.4688 15.125 18 16.3906 18 17.8906V19.25C18 19.875 17.7812 20.4062 17.3438 20.8438C16.9062 21.2812 16.375 21.5 15.75 21.5H2.25C1.625 21.5 1.09375 21.2812 0.65625 20.8438C0.21875 20.4062 0 19.875 0 19.25V17.8906C0 16.3906 0.515625 15.125 1.54688 14.0938C2.60938 13.0312 3.89062 12.5 5.39062 12.5H5.8125C6.84375 13 7.90625 13.25 9 13.25C10.0938 13.25 11.1562 13 12.1875 12.5H12.6094ZM25.6875 9.6875C24.8125 10.5625 23.75 11 22.5 11C21.25 11 20.1875 10.5625 19.3125 9.6875C18.4375 8.8125 18 7.75 18 6.5C18 5.25 18.4375 4.1875 19.3125 3.3125C20.1875 2.4375 21.25 2 22.5 2C23.75 2 24.8125 2.4375 25.6875 3.3125C26.5625 4.1875 27 5.25 27 6.5C27 7.75 26.5625 8.8125 25.6875 9.6875ZM24.75 12.5C26.1875 12.5 27.4219 13.0156 28.4531 14.0469C29.4844 15.0781 30 16.3125 30 17.75C30 18.375 29.7812 18.9062 29.3438 19.3438C28.9062 19.7812 28.375 20 27.75 20H19.4531C19.4531 19.9688 19.4531 19.9219 19.4531 19.8594C19.4844 19.7969 19.5 19.75 19.5 19.7188V17.8906C19.5 16.1094 18.875 14.5469 17.625 13.2031C18.4688 12.7344 19.3438 12.5 20.25 12.5H20.4375C21.1562 12.75 21.8438 12.875 22.5 12.875C23.1562 12.875 23.8438 12.75 24.5625 12.5H24.75Z" fill="#F3DBC7"/>
</svg>
