<svg width="24" height="24" viewBox="0 0 24 24" fill="none" xmlns="http://www.w3.org/2000/svg">
<path d="M22.8281 14.8125C23.1094 14.9375 23.2031 15.1562 23.1094 15.4688C22.5781 17.125 21.7188 18.5938 20.5312 19.875C20.3438 20.0938 20.125 20.1406 19.875 20.0156L17.8594 18.8438C17.0156 19.5625 16.0625 20.1094 15 20.4844V22.7812C15 23.0938 14.8594 23.2812 14.5781 23.3438C12.8594 23.7188 11.1562 23.7188 9.46875 23.3438C9.15625 23.2812 9 23.0938 9 22.7812V20.4844C7.9375 20.1094 6.98438 19.5625 6.14062 18.8438L4.17188 20.0156C3.89062 20.1406 3.65625 20.0938 3.46875 19.875C2.28125 18.5938 1.42188 17.125 0.890625 15.4688C0.796875 15.1875 0.890625 14.9688 1.17188 14.8125L3.14062 13.6406C3.04688 13.1094 3 12.5625 3 12C3 11.4375 3.04688 10.8906 3.14062 10.3594L1.17188 9.1875C0.890625 9.0625 0.796875 8.84375 0.890625 8.53125C1.42188 6.875 2.28125 5.40625 3.46875 4.125C3.65625 3.90625 3.89062 3.875 4.17188 4.03125L6.14062 5.15625C6.98438 4.4375 7.9375 3.89062 9 3.51562V1.21875C9 0.90625 9.14062 0.71875 9.42188 0.65625C11.1406 0.28125 12.8594 0.28125 14.5781 0.65625C14.8594 0.71875 15 0.90625 15 1.21875V3.51562C16.0625 3.89062 17.0156 4.4375 17.8594 5.15625L19.8281 3.98438C20.1094 3.85937 20.3438 3.90625 20.5312 4.125C21.7188 5.40625 22.5781 6.875 23.1094 8.53125C23.2031 8.84375 23.1094 9.0625 22.8281 9.1875L20.8594 10.3594C21.0469 11.4531 21.0469 12.5469 20.8594 13.6406L22.8281 14.8125ZM9.32812 14.6719C10.0781 15.3906 10.9688 15.75 12 15.75C13.0312 15.75 13.9062 15.3906 14.625 14.6719C15.375 13.9219 15.75 13.0312 15.75 12C15.75 10.9688 15.375 10.0938 14.625 9.375C13.9062 8.625 13.0312 8.25 12 8.25C10.9688 8.25 10.0781 8.625 9.32812 9.375C8.60938 10.0938 8.25 10.9688 8.25 12C8.25 13.0312 8.60938 13.9219 9.32812 14.6719Z" fill="#F3DBC7"/>
</svg>
