<svg width="25" height="25" viewBox="0 0 25 25" fill="none" xmlns="http://www.w3.org/2000/svg">
<path d="M23.5312 19.5625C23.875 19.9062 24.0469 20.3125 24.0469 20.7812C24.0469 21.25 23.875 21.6562 23.5312 22L21.0469 24.4844C20.7344 24.8281 20.3281 25 19.8281 25C19.3594 25 18.9531 24.8281 18.6094 24.4844L13.125 19C12.5938 18.4688 12.2656 17.8281 12.1406 17.0781C12.0156 16.3281 12.125 15.6406 12.4688 15.0156L7.45312 10H4.54688L0.046875 4L3.04688 1L9.04688 5.5V8.40625L14.0625 13.4219C14.6875 13.0781 15.375 12.9688 16.125 13.0938C16.875 13.2188 17.5156 13.5469 18.0469 14.0781L23.5312 19.5625ZM15.6094 11.5469C15.2031 11.5469 14.8125 11.5938 14.4375 11.6875L10.5938 7.84375C10.5625 5.9375 11.2031 4.3125 12.5156 2.96875C13.3594 2.125 14.3438 1.54688 15.4688 1.23438C16.625 0.921875 17.7812 0.90625 18.9375 1.1875C19.1562 1.25 19.2812 1.39062 19.3125 1.60938C19.375 1.82813 19.3281 2 19.1719 2.125L15.7031 5.64062L16.2188 8.82812L19.4062 9.34375L22.9219 5.875C23.0781 5.71875 23.25 5.67188 23.4375 5.73438C23.6562 5.76563 23.7969 5.89062 23.8594 6.10938C24.1406 7.23438 24.125 8.375 23.8125 9.53125C23.5 10.6875 22.9219 11.6875 22.0781 12.5312C21.4844 13.0938 20.7969 13.5469 20.0156 13.8906L19.125 13C18.1562 12.0312 16.9844 11.5469 15.6094 11.5469ZM10.7344 15.3906C10.5156 16.3594 10.5938 17.3438 10.9688 18.3438L5.15625 24.1094C4.5625 24.7031 3.84375 25 3 25C2.1875 25 1.48438 24.7031 0.890625 24.1094C0.328125 23.5469 0.046875 22.8438 0.046875 22C0.046875 21.1875 0.34375 20.4844 0.9375 19.8906L8.0625 12.7188L10.7344 15.3906ZM2.25 22.7969C2.46875 23.0156 2.73438 23.125 3.04688 23.125C3.35938 23.125 3.625 23.0156 3.84375 22.7969C4.0625 22.5781 4.17188 22.3125 4.17188 22C4.17188 21.6875 4.0625 21.4219 3.84375 21.2031C3.625 20.9844 3.35938 20.875 3.04688 20.875C2.73438 20.875 2.46875 20.9844 2.25 21.2031C2.03125 21.4219 1.92188 21.6875 1.92188 22C1.92188 22.3125 2.03125 22.5781 2.25 22.7969Z" fill="#F3DBC7"/>
</svg>
