<svg width="17" height="17" viewBox="0 0 17 17" fill="none" xmlns="http://www.w3.org/2000/svg">
<path d="M15.5938 4.4375L14.1562 5.875C13.9688 6.0625 13.7917 6.0625 13.625 5.875L10.1562 2.40625C9.96875 2.23958 9.96875 2.0625 10.1562 1.875L11.5938 0.4375C11.8854 0.145833 12.2396 0 12.6562 0C13.0729 0 13.4271 0.145833 13.7188 0.4375L15.5938 2.3125C15.8854 2.60417 16.0312 2.95833 16.0312 3.375C16.0312 3.79167 15.8854 4.14583 15.5938 4.4375ZM8.90625 3.125C9.09375 2.9375 9.27083 2.9375 9.4375 3.125L12.9062 6.59375C13.0938 6.76042 13.0938 6.9375 12.9062 7.125L4.71875 15.3125L0.90625 16C0.65625 16.0417 0.4375 15.9688 0.25 15.7812C0.0625 15.5938 -0.0104167 15.375 0.03125 15.125L0.71875 11.3125L8.90625 3.125ZM3.90625 10C3.69792 10.2083 3.69792 10.4167 3.90625 10.625C4.11458 10.8333 4.32292 10.8333 4.53125 10.625L9.34375 5.8125C9.55208 5.60417 9.55208 5.39583 9.34375 5.1875C9.13542 4.97917 8.92708 4.97917 8.71875 5.1875L3.90625 10ZM2.78125 13.25V11.75H1.65625L1.28125 13.75L2.28125 14.75L4.28125 14.375V13.25H2.78125Z" fill="white"/>
</svg>
