<svg width="12" height="24" viewBox="0 0 12 24" fill="none" xmlns="http://www.w3.org/2000/svg">
<path d="M7.875 19.5H12V22.5C12 22.9062 11.8438 23.25 11.5312 23.5312C11.25 23.8438 10.9062 24 10.5 24H1.5C1.09375 24 0.734375 23.8438 0.421875 23.5312C0.140625 23.25 0 22.9062 0 22.5V1.5C0 1.09375 0.140625 0.75 0.421875 0.46875C0.734375 0.15625 1.09375 0 1.5 0H10.5C10.9062 0 11.25 0.15625 11.5312 0.46875C11.8438 0.75 12 1.09375 12 1.5V4.5H7.875C7.625 4.5 7.5 4.625 7.5 4.875V5.625C7.5 5.875 7.625 6 7.875 6H12V9H7.875C7.625 9 7.5 9.125 7.5 9.375V10.125C7.5 10.375 7.625 10.5 7.875 10.5H12V13.5H7.875C7.625 13.5 7.5 13.625 7.5 13.875V14.625C7.5 14.875 7.625 15 7.875 15H12V18H7.875C7.625 18 7.5 18.125 7.5 18.375V19.125C7.5 19.375 7.625 19.5 7.875 19.5Z" fill="#435F40"/>
</svg>
